<svg width="173" height="55" viewBox="0 0 173 55" fill="none" xmlns="http://www.w3.org/2000/svg">
<circle cx="30.0086" cy="14.1568" r="14.1207" fill="white"/>
<path d="M15.8879 0.0361328H29.8535V35.7258L15.8879 44.4154V0.0361328Z" fill="white"/>
<path d="M8.12927 3.46512L13.4051 0.0361328V45.6416L8.12927 49.0706V3.46512Z" fill="white"/>
<path d="M0.370667 8.43045L5.64653 5.00146V50.607L0.370667 54.0359V8.43045Z" fill="white"/>
<path d="M64.5445 17.3454C68.4117 17.3454 70.9996 19.5843 70.9996 23.1898C70.9996 26.7954 68.4117 29.0343 64.5445 29.0343H60.0957V36.5361H57.7696V17.3454H64.5445ZM64.1956 26.8535C67.2196 26.8535 68.5571 25.5741 68.5571 23.1898C68.5571 20.8055 67.2196 19.5261 64.1956 19.5261H60.0957V26.8535H64.1956ZM87.0021 34.8497C87.3801 34.8497 87.8163 34.7915 88.1652 34.7043L88.0198 36.5361C87.6127 36.6815 87.0021 36.8269 86.2752 36.8269C84.8504 36.8269 83.92 36.3035 83.6583 34.6752C82.7278 36.0418 80.8378 36.8269 78.9769 36.8269C76.2436 36.8269 74.0338 35.5475 74.0338 32.9306C74.0338 30.7498 75.9529 29.0343 79.7038 28.3946L83.571 27.7549V26.9407C83.571 25.0217 82.3498 23.7423 80.169 23.7423C78.25 23.7423 76.7961 24.6727 76.011 26.5046L74.2955 25.2543C75.0515 23.1026 77.3486 21.7069 80.169 21.7069C83.4838 21.7069 85.8972 23.2771 85.8972 26.65V33.8029C85.8972 34.5007 86.188 34.8497 87.0021 34.8497ZM79.0932 34.7915C81.4193 34.7915 83.571 33.5703 83.571 31.6512V29.6449L80.3144 30.2555C77.7556 30.7207 76.4472 31.564 76.4472 32.9306C76.4472 34.1518 77.4358 34.7915 79.0932 34.7915ZM103.056 21.9977L96.2227 38.9786C95.0887 41.8281 93.7802 42.7877 91.6285 42.7877C90.1747 42.7877 89.2442 42.4387 88.4301 41.5664L89.2442 39.5892C89.913 40.5197 90.7853 40.7523 91.5994 40.7523C92.6171 40.7523 93.5185 40.3161 94.2454 38.3971L95.0014 36.5071L88.9244 21.9977H91.5704L95.205 31.4767L96.1064 34.0646L97.1531 31.186L100.555 21.9977H103.056ZM110.833 36.8269C108.158 36.8269 105.686 35.7801 104.581 33.5412L106.471 32.2327C107.169 34.0064 108.972 34.7915 111.065 34.7915C113.45 34.7915 114.584 33.832 114.584 32.6398C114.584 31.564 113.682 30.9243 110.775 30.4009C106.646 29.6449 105.134 28.5109 105.134 26.0684C105.134 23.7132 107.314 21.7069 110.862 21.7069C113.973 21.7069 115.805 22.8118 116.619 25.1961L114.642 26.3592C114.002 24.4401 112.694 23.7423 110.862 23.7423C108.914 23.7423 107.46 24.7891 107.46 25.8649C107.46 27.1152 108.419 27.7549 111.385 28.2492C115.456 28.918 116.91 30.1392 116.91 32.5235C116.91 35.0532 114.555 36.8269 110.833 36.8269ZM123.433 15.31V32.6398C123.433 34.1227 123.811 34.588 125.003 34.588C125.788 34.588 126.283 34.5007 127.126 34.1809L126.748 36.4198C126.137 36.6815 125.352 36.8269 124.596 36.8269C122.241 36.8269 121.107 35.5766 121.107 32.9306V15.31H123.433ZM142.032 34.8497C142.41 34.8497 142.847 34.7915 143.196 34.7043L143.05 36.5361C142.643 36.6815 142.032 36.8269 141.306 36.8269C139.881 36.8269 138.95 36.3035 138.689 34.6752C137.758 36.0418 135.868 36.8269 134.007 36.8269C131.274 36.8269 129.064 35.5475 129.064 32.9306C129.064 30.7498 130.983 29.0343 134.734 28.3946L138.601 27.7549V26.9407C138.601 25.0217 137.38 23.7423 135.199 23.7423C133.28 23.7423 131.826 24.6727 131.041 26.5046L129.326 25.2543C130.082 23.1026 132.379 21.7069 135.199 21.7069C138.514 21.7069 140.928 23.2771 140.928 26.65V33.8029C140.928 34.5007 141.218 34.8497 142.032 34.8497ZM134.124 34.7915C136.45 34.7915 138.601 33.5703 138.601 31.6512V29.6449L135.345 30.2555C132.786 30.7207 131.478 31.564 131.478 32.9306C131.478 34.1518 132.466 34.7915 134.124 34.7915ZM154.096 33.5703L154.91 35.5184C154.009 36.3326 152.758 36.8269 151.159 36.8269C149.007 36.8269 147.146 35.7511 147.117 32.9306V24.004H144.21V21.9977H147.117V18.5084L149.443 17.8687V21.9977H154.823V24.004H149.443V32.5235C149.443 33.9483 150.345 34.6461 151.624 34.6461C152.671 34.6461 153.427 34.2391 154.096 33.5703ZM170.668 28.5109C170.668 29.1797 170.61 29.7321 170.552 30.1392H159.59C159.88 33.076 161.654 34.7915 164.329 34.7915C166.452 34.7915 167.906 34.0355 168.429 32.6398L170.377 33.6575C169.272 35.6347 167.47 36.8269 164.329 36.8269C159.939 36.8269 157.293 33.9774 157.293 29.2669C157.293 24.5564 159.764 21.7069 164.155 21.7069C168.371 21.7069 170.668 24.76 170.668 28.5109ZM164.155 23.7423C161.567 23.7423 159.968 25.3415 159.619 28.0747H168.429C168.109 25.3997 166.626 23.7423 164.155 23.7423Z" fill="white"/>
</svg>
